<svg width="172" height="39" viewBox="0 0 172 39" fill="none" xmlns="http://www.w3.org/2000/svg">
<path d="M92.83 30V13.74H98.26V18.48L97.45 17.13C97.93 15.91 98.71 15 99.79 14.4C100.87 13.78 102.18 13.47 103.72 13.47V18.6C103.46 18.56 103.23 18.54 103.03 18.54C102.85 18.52 102.65 18.51 102.43 18.51C101.27 18.51 100.33 18.83 99.61 19.47C98.89 20.09 98.53 21.11 98.53 22.53V30H92.83ZM114.446 30.27C112.526 30.27 110.846 29.91 109.406 29.19C107.986 28.45 106.876 27.45 106.076 26.19C105.296 24.91 104.906 23.46 104.906 21.84C104.906 20.22 105.286 18.78 106.046 17.52C106.826 16.24 107.896 15.25 109.256 14.55C110.616 13.83 112.146 13.47 113.846 13.47C115.446 13.47 116.906 13.8 118.226 14.46C119.546 15.1 120.596 16.05 121.376 17.31C122.156 18.57 122.546 20.1 122.546 21.9C122.546 22.1 122.536 22.33 122.516 22.59C122.496 22.85 122.476 23.09 122.456 23.31H109.586V20.31H119.426L117.266 21.15C117.286 20.41 117.146 19.77 116.846 19.23C116.566 18.69 116.166 18.27 115.646 17.97C115.146 17.67 114.556 17.52 113.876 17.52C113.196 17.52 112.596 17.67 112.076 17.97C111.576 18.27 111.186 18.7 110.906 19.26C110.626 19.8 110.486 20.44 110.486 21.18V22.05C110.486 22.85 110.646 23.54 110.966 24.12C111.306 24.7 111.786 25.15 112.406 25.47C113.026 25.77 113.766 25.92 114.626 25.92C115.426 25.92 116.106 25.81 116.666 25.59C117.246 25.35 117.816 24.99 118.376 24.51L121.376 27.63C120.596 28.49 119.636 29.15 118.496 29.61C117.356 30.05 116.006 30.27 114.446 30.27ZM125.174 30V13.74H130.874V30H125.174ZM128.024 11.94C126.984 11.94 126.144 11.65 125.504 11.07C124.864 10.49 124.544 9.77 124.544 8.91C124.544 8.05 124.864 7.33 125.504 6.75C126.144 6.17 126.984 5.88 128.024 5.88C129.064 5.88 129.904 6.16 130.544 6.72C131.184 7.26 131.504 7.96 131.504 8.82C131.504 9.72 131.184 10.47 130.544 11.07C129.924 11.65 129.084 11.94 128.024 11.94ZM142.888 30.27C141.088 30.27 139.478 29.91 138.058 29.19C136.658 28.47 135.558 27.48 134.758 26.22C133.958 24.94 133.558 23.48 133.558 21.84C133.558 20.2 133.958 18.75 134.758 17.49C135.558 16.23 136.658 15.25 138.058 14.55C139.478 13.83 141.088 13.47 142.888 13.47C144.728 13.47 146.318 13.86 147.658 14.64C148.998 15.42 149.948 16.52 150.508 17.94L146.098 20.19C145.718 19.43 145.248 18.88 144.688 18.54C144.128 18.18 143.518 18 142.858 18C142.198 18 141.598 18.15 141.058 18.45C140.518 18.75 140.088 19.19 139.768 19.77C139.468 20.33 139.318 21.02 139.318 21.84C139.318 22.68 139.468 23.39 139.768 23.97C140.088 24.55 140.518 24.99 141.058 25.29C141.598 25.59 142.198 25.74 142.858 25.74C143.518 25.74 144.128 25.57 144.688 25.23C145.248 24.87 145.718 24.31 146.098 23.55L150.508 25.8C149.948 27.22 148.998 28.32 147.658 29.1C146.318 29.88 144.728 30.27 142.888 30.27ZM163.186 13.47C164.446 13.47 165.586 13.73 166.606 14.25C167.626 14.75 168.426 15.53 169.006 16.59C169.606 17.65 169.906 19.02 169.906 20.7V30H164.206V21.63C164.206 20.47 163.966 19.63 163.486 19.11C163.026 18.57 162.376 18.3 161.536 18.3C160.936 18.3 160.386 18.44 159.886 18.72C159.386 18.98 158.996 19.39 158.716 19.95C158.436 20.51 158.296 21.24 158.296 22.14V30H152.596V7.74H158.296V18.36L156.976 17.01C157.596 15.83 158.446 14.95 159.526 14.37C160.606 13.77 161.826 13.47 163.186 13.47Z" fill="#141819"/>
<path d="M6.7 30L0.91 13.74H6.31L10.9 27.33H8.32L13.09 13.74H17.95L22.54 27.33H20.02L24.76 13.74H29.77L23.98 30H18.46L14.56 18.75H16.24L12.22 30H6.7ZM39.5922 30.27C37.6722 30.27 35.9922 29.91 34.5522 29.19C33.1322 28.45 32.0222 27.45 31.2222 26.19C30.4422 24.91 30.0522 23.46 30.0522 21.84C30.0522 20.22 30.4322 18.78 31.1922 17.52C31.9722 16.24 33.0422 15.25 34.4022 14.55C35.7622 13.83 37.2922 13.47 38.9922 13.47C40.5922 13.47 42.0522 13.8 43.3722 14.46C44.6922 15.1 45.7422 16.05 46.5222 17.31C47.3022 18.57 47.6922 20.1 47.6922 21.9C47.6922 22.1 47.6822 22.33 47.6622 22.59C47.6422 22.85 47.6222 23.09 47.6022 23.31H34.7322V20.31H44.5722L42.4122 21.15C42.4322 20.41 42.2922 19.77 41.9922 19.23C41.7122 18.69 41.3122 18.27 40.7922 17.97C40.2922 17.67 39.7022 17.52 39.0222 17.52C38.3422 17.52 37.7422 17.67 37.2222 17.97C36.7222 18.27 36.3322 18.7 36.0522 19.26C35.7722 19.8 35.6322 20.44 35.6322 21.18V22.05C35.6322 22.85 35.7922 23.54 36.1122 24.12C36.4522 24.7 36.9322 25.15 37.5522 25.47C38.1722 25.77 38.9122 25.92 39.7722 25.92C40.5722 25.92 41.2522 25.81 41.8122 25.59C42.3922 25.35 42.9622 24.99 43.5222 24.51L46.5222 27.63C45.7422 28.49 44.7822 29.15 43.6422 29.61C42.5022 30.05 41.1522 30.27 39.5922 30.27ZM60.5502 30.27C59.0902 30.27 57.8702 29.97 56.8902 29.37C55.9302 28.77 55.2102 27.85 54.7302 26.61C54.2502 25.37 54.0102 23.78 54.0102 21.84C54.0102 19.94 54.2602 18.37 54.7602 17.13C55.2802 15.89 56.0302 14.97 57.0102 14.37C57.9902 13.77 59.1702 13.47 60.5502 13.47C62.0302 13.47 63.3702 13.81 64.5702 14.49C65.7902 15.17 66.7502 16.14 67.4502 17.4C68.1702 18.64 68.5302 20.12 68.5302 21.84C68.5302 23.58 68.1702 25.08 67.4502 26.34C66.7502 27.58 65.7902 28.55 64.5702 29.25C63.3702 29.93 62.0302 30.27 60.5502 30.27ZM50.3202 30V7.74H56.0202V16.47L55.7202 21.84L55.7502 27.21V30H50.3202ZM59.3502 25.74C59.9902 25.74 60.5602 25.59 61.0602 25.29C61.5802 24.99 61.9902 24.55 62.2902 23.97C62.6102 23.37 62.7702 22.66 62.7702 21.84C62.7702 21.02 62.6102 20.33 62.2902 19.77C61.9902 19.19 61.5802 18.75 61.0602 18.45C60.5602 18.15 59.9902 18 59.3502 18C58.7102 18 58.1302 18.15 57.6102 18.45C57.1102 18.75 56.7002 19.19 56.3802 19.77C56.0802 20.33 55.9302 21.02 55.9302 21.84C55.9302 22.66 56.0802 23.37 56.3802 23.97C56.7002 24.55 57.1102 24.99 57.6102 25.29C58.1302 25.59 58.7102 25.74 59.3502 25.74Z" fill="#141819"/>
<circle cx="81" cy="21" r="5" fill="#FF2642"/>
</svg>
