<svg width="1162" height="804" viewBox="0 0 1162 804" fill="none" xmlns="http://www.w3.org/2000/svg">
<path d="M9.16667 392.999C-9.5 192.999 3.83334 192.999 49.1667 392.999C79.3889 459.666 92.7222 459.666 89.1667 392.999C70.5 326.332 83.8333 326.332 129.167 392.999C187.873 498.999 201.207 498.999 169.167 392.999C150.5 286.999 163.833 286.999 209.167 392.999C246.517 461.666 259.85 461.666 249.167 392.999C230.5 324.332 243.833 324.332 289.167 392.999C361.348 542.999 374.681 542.999 329.167 392.999C310.5 242.999 323.833 242.999 369.167 392.999C411.478 522.999 424.811 522.999 409.167 392.999C390.5 262.999 403.833 262.999 449.167 392.999C500.544 557.666 513.878 557.666 489.167 392.999C470.5 228.332 483.833 228.332 529.167 392.999C564.956 488.332 578.289 488.332 569.167 392.999C550.5 297.666 563.833 297.666 609.167 392.999C654.817 489.666 668.15 489.666 649.167 392.999C630.5 296.332 643.833 296.332 689.167 392.999C743.567 528.332 756.9 528.332 729.167 392.999C710.5 257.666 723.833 257.666 769.167 392.999C818.966 554.999 832.3 554.999 809.167 392.999C790.5 230.999 803.833 230.999 849.167 392.999C888.157 509.666 901.49 509.666 889.167 392.999C870.5 276.332 883.833 276.332 929.167 392.999C968.93 480.999 982.264 480.999 969.167 392.999C950.5 304.999 963.833 304.999 1009.17 392.999C1050.04 463.666 1063.37 463.666 1049.17 392.999C1030.5 322.332 1043.83 322.332 1089.17 392.999C1168.71 570.332 1182.05 570.332 1129.17 392.999M162 402L562 2L962 402L562 802L162 402ZM256.405 400.928L561.452 95.8813L866.498 400.928L561.452 705.975L256.405 400.928ZM304 167H818.156V681.156H304V167Z" stroke="#2D3031" stroke-width="2"/>
</svg>
