<svg width="117" height="18" viewBox="0 0 117 18" fill="none" xmlns="http://www.w3.org/2000/svg">
<path d="M65.2204 16.9999V6.15992H68.8404V9.31992L68.3004 8.41992C68.6204 7.60659 69.1404 6.99992 69.8604 6.59992C70.5804 6.18659 71.4538 5.97992 72.4804 5.97992V9.39992C72.3071 9.37325 72.1538 9.35992 72.0204 9.35992C71.9004 9.34659 71.7671 9.33992 71.6204 9.33992C70.8471 9.33992 70.2204 9.55325 69.7404 9.97992C69.2604 10.3933 69.0204 11.0733 69.0204 12.0199V16.9999H65.2204Z" fill="white"/>
<path d="M79.6309 17.1799C78.3509 17.1799 77.2309 16.9399 76.2709 16.4599C75.3242 15.9666 74.5842 15.2999 74.0509 14.4599C73.5309 13.6066 73.2709 12.6399 73.2709 11.5599C73.2709 10.4799 73.5242 9.51992 74.0309 8.67992C74.5509 7.82659 75.2642 7.16659 76.1709 6.69992C77.0776 6.21992 78.0976 5.97992 79.2309 5.97992C80.2976 5.97992 81.2709 6.19992 82.1509 6.63992C83.0309 7.06659 83.7309 7.69992 84.2509 8.53992C84.7709 9.37992 85.0309 10.3999 85.0309 11.5999C85.0309 11.7333 85.0242 11.8866 85.0109 12.0599C84.9976 12.2333 84.9842 12.3933 84.9709 12.5399H76.3909V10.5399H82.9509L81.5109 11.0999C81.5242 10.6066 81.4309 10.1799 81.2309 9.81992C81.0442 9.45992 80.7776 9.17992 80.4309 8.97992C80.0976 8.77992 79.7042 8.67992 79.2509 8.67992C78.7976 8.67992 78.3976 8.77992 78.0509 8.97992C77.7176 9.17992 77.4576 9.46659 77.2709 9.83992C77.0842 10.1999 76.9909 10.6266 76.9909 11.1199V11.6999C76.9909 12.2333 77.0976 12.6933 77.3109 13.0799C77.5376 13.4666 77.8576 13.7666 78.2709 13.9799C78.6842 14.1799 79.1776 14.2799 79.7509 14.2799C80.2842 14.2799 80.7376 14.2066 81.1109 14.0599C81.4976 13.8999 81.8776 13.6599 82.2509 13.3399L84.2509 15.4199C83.7309 15.9933 83.0909 16.4333 82.3309 16.7399C81.5709 17.0333 80.6709 17.1799 79.6309 17.1799Z" fill="white"/>
<path d="M86.7829 16.9999V6.15992H90.5829V16.9999H86.7829ZM88.6829 4.95992C87.9896 4.95992 87.4296 4.76659 87.0029 4.37992C86.5763 3.99325 86.3629 3.51325 86.3629 2.93992C86.3629 2.36659 86.5763 1.88659 87.0029 1.49992C87.4296 1.11325 87.9896 0.919922 88.6829 0.919922C89.3763 0.919922 89.9363 1.10659 90.3629 1.47992C90.7896 1.83992 91.0029 2.30659 91.0029 2.87992C91.0029 3.47992 90.7896 3.97992 90.3629 4.37992C89.9496 4.76659 89.3896 4.95992 88.6829 4.95992Z" fill="white"/>
<path d="M98.5925 17.1799C97.3925 17.1799 96.3191 16.9399 95.3725 16.4599C94.4391 15.9799 93.7058 15.3199 93.1725 14.4799C92.6391 13.6266 92.3725 12.6533 92.3725 11.5599C92.3725 10.4666 92.6391 9.49992 93.1725 8.65992C93.7058 7.81992 94.4391 7.16659 95.3725 6.69992C96.3191 6.21992 97.3925 5.97992 98.5925 5.97992C99.8191 5.97992 100.879 6.23992 101.772 6.75992C102.666 7.27992 103.299 8.01326 103.672 8.95992L100.732 10.4599C100.479 9.95325 100.166 9.58659 99.7925 9.35992C99.4191 9.11992 99.0125 8.99992 98.5725 8.99992C98.1325 8.99992 97.7325 9.09992 97.3725 9.29992C97.0125 9.49992 96.7258 9.79326 96.5125 10.1799C96.3125 10.5533 96.2125 11.0133 96.2125 11.5599C96.2125 12.1199 96.3125 12.5933 96.5125 12.9799C96.7258 13.3666 97.0125 13.6599 97.3725 13.8599C97.7325 14.0599 98.1325 14.1599 98.5725 14.1599C99.0125 14.1599 99.4191 14.0466 99.7925 13.8199C100.166 13.5799 100.479 13.2066 100.732 12.6999L103.672 14.1999C103.299 15.1466 102.666 15.8799 101.772 16.3999C100.879 16.9199 99.8191 17.1799 98.5925 17.1799Z" fill="white"/>
<path d="M112.124 5.97992C112.964 5.97992 113.724 6.15326 114.404 6.49992C115.084 6.83326 115.618 7.35326 116.004 8.05992C116.404 8.76659 116.604 9.67992 116.604 10.7999V16.9999H112.804V11.4199C112.804 10.6466 112.644 10.0866 112.324 9.73992C112.018 9.37992 111.584 9.19992 111.024 9.19992C110.624 9.19992 110.258 9.29325 109.924 9.47992C109.591 9.65325 109.331 9.92659 109.144 10.2999C108.958 10.6733 108.864 11.1599 108.864 11.7599V16.9999H105.064V2.15992H108.864V9.23992L107.984 8.33992C108.398 7.55326 108.964 6.96659 109.684 6.57992C110.404 6.17992 111.218 5.97992 112.124 5.97992Z" fill="white"/>
<path d="M4.80043 16.9999L0.94043 6.15992H4.54043L7.60043 15.2199H5.88043L9.06043 6.15992H12.3004L15.3604 15.2199H13.6804L16.8404 6.15992H20.1804L16.3204 16.9999H12.6404L10.0404 9.49992H11.1604L8.48043 16.9999H4.80043Z" fill="white"/>
<path d="M26.7286 17.1799C25.4486 17.1799 24.3286 16.9399 23.3686 16.4599C22.4219 15.9666 21.6819 15.2999 21.1486 14.4599C20.6286 13.6066 20.3686 12.6399 20.3686 11.5599C20.3686 10.4799 20.6219 9.51992 21.1286 8.67992C21.6486 7.82659 22.3619 7.16659 23.2686 6.69992C24.1752 6.21992 25.1952 5.97992 26.3286 5.97992C27.3952 5.97992 28.3686 6.19992 29.2486 6.63992C30.1286 7.06659 30.8286 7.69992 31.3486 8.53992C31.8686 9.37992 32.1286 10.3999 32.1286 11.5999C32.1286 11.7333 32.1219 11.8866 32.1086 12.0599C32.0952 12.2333 32.0819 12.3933 32.0686 12.5399H23.4886V10.5399H30.0486L28.6086 11.0999C28.6219 10.6066 28.5286 10.1799 28.3286 9.81992C28.1419 9.45992 27.8752 9.17992 27.5286 8.97992C27.1952 8.77992 26.8019 8.67992 26.3486 8.67992C25.8952 8.67992 25.4952 8.77992 25.1486 8.97992C24.8152 9.17992 24.5552 9.46659 24.3686 9.83992C24.1819 10.1999 24.0886 10.6266 24.0886 11.1199V11.6999C24.0886 12.2333 24.1952 12.6933 24.4086 13.0799C24.6352 13.4666 24.9552 13.7666 25.3686 13.9799C25.7819 14.1799 26.2752 14.2799 26.8486 14.2799C27.3819 14.2799 27.8352 14.2066 28.2086 14.0599C28.5952 13.8999 28.9752 13.6599 29.3486 13.3399L31.3486 15.4199C30.8286 15.9933 30.1886 16.4333 29.4286 16.7399C28.6686 17.0333 27.7686 17.1799 26.7286 17.1799Z" fill="white"/>
<path d="M40.7006 17.1799C39.7273 17.1799 38.9139 16.9799 38.2606 16.5799C37.6206 16.1799 37.1406 15.5666 36.8206 14.7399C36.5006 13.9133 36.3406 12.8533 36.3406 11.5599C36.3406 10.2933 36.5073 9.24659 36.8406 8.41992C37.1873 7.59326 37.6873 6.97992 38.3406 6.57992C38.9939 6.17992 39.7806 5.97992 40.7006 5.97992C41.6873 5.97992 42.5806 6.20659 43.3806 6.65992C44.1939 7.11326 44.8339 7.75992 45.3006 8.59992C45.7806 9.42659 46.0206 10.4133 46.0206 11.5599C46.0206 12.7199 45.7806 13.7199 45.3006 14.5599C44.8339 15.3866 44.1939 16.0333 43.3806 16.4999C42.5806 16.9533 41.6873 17.1799 40.7006 17.1799ZM33.8806 16.9999V2.15992H37.6806V7.97992L37.4806 11.5599L37.5006 15.1399V16.9999H33.8806ZM39.9006 14.1599C40.3273 14.1599 40.7073 14.0599 41.0406 13.8599C41.3873 13.6599 41.6606 13.3666 41.8606 12.9799C42.0739 12.5799 42.1806 12.1066 42.1806 11.5599C42.1806 11.0133 42.0739 10.5533 41.8606 10.1799C41.6606 9.79326 41.3873 9.49992 41.0406 9.29992C40.7073 9.09992 40.3273 8.99992 39.9006 8.99992C39.4739 8.99992 39.0873 9.09992 38.7406 9.29992C38.4073 9.49992 38.1339 9.79326 37.9206 10.1799C37.7206 10.5533 37.6206 11.0133 37.6206 11.5599C37.6206 12.1066 37.7206 12.5799 37.9206 12.9799C38.1339 13.3666 38.4073 13.6599 38.7406 13.8599C39.0873 14.0599 39.4739 14.1599 39.9006 14.1599Z" fill="white"/>
<path d="M59.0004 10.4999C59.0004 12.4329 57.4334 13.9999 55.5004 13.9999C53.5674 13.9999 52.0004 12.4329 52.0004 10.4999C52.0004 8.56693 53.5674 6.99992 55.5004 6.99992C57.4334 6.99992 59.0004 8.56693 59.0004 10.4999Z" fill="#FF2642"/>
</svg>
